<?xml version="1.0" encoding="utf-8"?>
<!-- Generator: Adobe Illustrator 16.0.0, SVG Export Plug-In . SVG Version: 6.00 Build 0)  -->
<!DOCTYPE svg PUBLIC "-//W3C//DTD SVG 1.1//EN" "http://www.w3.org/Graphics/SVG/1.1/DTD/svg11.dtd">
<svg version="1.1" id="Capa_1" xmlns="http://www.w3.org/2000/svg" xmlns:xlink="http://www.w3.org/1999/xlink" x="0px" y="0px"
	 width="71.5px" height="71.5px" viewBox="0 0 71.5 71.5" enable-background="new 0 0 71.5 71.5" xml:space="preserve">
<circle fill="#FF7B00" cx="35.75" cy="35.75" r="35"/>
<g>
	<path fill="#FFFFFF" d="M51.18,49.426c3.234-3.644,5.2-8.435,5.2-13.676c0-5.454-2.129-10.418-5.6-14.11
		c-0.003-0.004-0.007-0.007-0.007-0.011c-3.615-3.837-8.678-6.297-14.308-6.491l-0.403-0.011c-0.104-0.003-0.208-0.007-0.313-0.007
		s-0.209,0.003-0.313,0.007l-0.399,0.011c-5.631,0.194-10.696,2.654-14.309,6.491c-0.003,0.004-0.007,0.007-0.007,0.011
		c0,0,0,0-0.003,0c-3.467,3.692-5.6,8.656-5.6,14.11c0,5.241,1.969,10.032,5.2,13.676c0.007,0.007,0.007,0.014,0.011,0.021
		c0.013,0.017,0.03,0.023,0.045,0.041c3.633,4.061,8.844,6.676,14.662,6.874l0.399,0.015c0.104,0,0.208,0.003,0.313,0.003
		s0.209-0.003,0.313-0.007l0.399-0.011h0.004c5.821-0.198,11.039-2.82,14.673-6.888c0.006-0.015,0.024-0.018,0.03-0.032
		C51.176,49.439,51.176,49.433,51.18,49.426L51.18,49.426z M16.562,36.462H25.1c0.08,3.015,0.671,5.946,1.72,8.691
		c-2.024,0.733-3.96,1.712-5.773,2.938C18.382,44.921,16.722,40.881,16.562,36.462L16.562,36.462z M21.436,22.963
		c1.771,1.149,3.653,2.07,5.62,2.762c-1.202,2.921-1.869,6.072-1.956,9.313h-8.538C16.731,30.411,18.542,26.193,21.436,22.963
		L21.436,22.963z M54.942,35.038H46.4c-0.087-3.241-0.751-6.391-1.956-9.313c1.967-0.692,3.853-1.612,5.62-2.762
		C52.958,26.193,54.771,30.411,54.942,35.038L54.942,35.038z M35.038,25.763c-2.056-0.056-4.075-0.364-6.023-0.911
		c1.441-2.959,3.478-5.63,6.023-7.854V25.763z M35.038,27.187v7.851h-8.515c0.088-3.091,0.736-6.092,1.896-8.872
		C30.558,26.784,32.776,27.128,35.038,27.187L35.038,27.187z M36.462,27.187c2.262-0.059,4.48-0.403,6.621-1.021
		c1.16,2.779,1.809,5.78,1.896,8.872h-8.518V27.187z M36.462,25.763v-8.764c2.55,2.223,4.585,4.894,6.026,7.854
		C40.537,25.399,38.518,25.708,36.462,25.763L36.462,25.763z M43.867,24.419c-1.367-2.863-3.265-5.471-5.612-7.708
		c4.168,0.545,7.916,2.429,10.803,5.208C47.418,22.956,45.678,23.794,43.867,24.419L43.867,24.419z M27.636,24.419
		c-1.813-0.625-3.554-1.463-5.189-2.5c2.886-2.779,6.634-4.663,10.799-5.208C30.897,18.948,29,21.556,27.636,24.419L27.636,24.419z
		 M26.523,36.462h8.515v7.143c-2.352,0.062-4.655,0.427-6.871,1.093C27.167,42.1,26.604,39.32,26.523,36.462L26.523,36.462z
		 M35.038,45.024v9.477c-2.728-2.379-4.863-5.27-6.318-8.479C30.759,45.421,32.878,45.088,35.038,45.024L35.038,45.024z
		 M36.462,54.501v-9.477c2.16,0.063,4.279,0.396,6.318,0.997C41.328,49.231,39.189,52.122,36.462,54.501L36.462,54.501z
		 M36.462,43.604v-7.143h8.518c-0.08,2.858-0.644,5.638-1.646,8.24C41.12,44.031,38.813,43.666,36.462,43.604L36.462,43.604z
		 M46.4,36.462h8.542c-0.164,4.419-1.82,8.459-4.488,11.629c-1.813-1.226-3.749-2.204-5.77-2.938
		C45.733,42.408,46.32,39.477,46.4,36.462L46.4,36.462z M22.016,49.158c1.681-1.118,3.474-2.019,5.346-2.688
		c1.386,3.099,3.369,5.927,5.884,8.319C28.869,54.217,24.954,52.17,22.016,49.158L22.016,49.158z M38.255,54.789
		c2.515-2.393,4.501-5.218,5.884-8.319c1.872,0.67,3.665,1.57,5.35,2.688C46.546,52.17,42.631,54.217,38.255,54.789L38.255,54.789z
		 M38.255,54.789"/>
</g>
</svg>
