<?xml version="1.0" encoding="utf-8"?>
<!-- Generator: Adobe Illustrator 16.0.0, SVG Export Plug-In . SVG Version: 6.00 Build 0)  -->
<!DOCTYPE svg PUBLIC "-//W3C//DTD SVG 1.1//EN" "http://www.w3.org/Graphics/SVG/1.1/DTD/svg11.dtd">
<svg version="1.1" id="Capa_1" xmlns="http://www.w3.org/2000/svg" xmlns:xlink="http://www.w3.org/1999/xlink" x="0px" y="0px"
	 width="71.5px" height="71.5px" viewBox="0 0 71.5 71.5" enable-background="new 0 0 71.5 71.5" xml:space="preserve">
<circle fill="#FF7B00" cx="35.75" cy="35.75" r="35"/>
<g>
	<path fill="#FFFFFF" d="M52.175,19.933h-4.26v-1.823c0-0.336-0.271-0.609-0.605-0.609h-4.26c-0.336,0-0.609,0.273-0.609,0.609
		v1.823H29.06v-1.823c0-0.336-0.273-0.609-0.609-0.609h-4.26c-0.335,0-0.608,0.273-0.608,0.609v1.823h-4.257
		c-0.336,0-0.608,0.274-0.608,0.608v32.85c0,0.336,0.272,0.609,0.608,0.609h32.85c0.336,0,0.608-0.273,0.608-0.609v-32.85
		C52.783,20.207,52.511,19.933,52.175,19.933L52.175,19.933z M43.658,18.719H46.7v3.646h-3.042V18.719z M24.8,18.719h3.042v3.646
		H24.8V18.719z M19.935,21.15h3.647v1.824c0,0.336,0.273,0.609,0.608,0.609h4.26c0.336,0,0.609-0.273,0.609-0.609V21.15H42.44v1.824
		c0,0.336,0.273,0.609,0.609,0.609h4.26c0.335,0,0.605-0.273,0.605-0.609V21.15h3.65v5.475H19.935V21.15z M19.935,52.782V27.844
		h31.631v24.938H19.935z M19.935,52.782"/>
	<path fill="#FFFFFF" d="M40.617,31.49H24.19v17.645H47.31V31.49H40.617z M36.357,32.709h4.26v4.259h-4.26V32.709z M40.617,42.442
		h-4.26v-4.26h4.26V42.442z M30.883,38.183h4.26v4.26h-4.26V38.183z M30.883,32.709h4.26v4.259h-4.26V32.709z M25.408,32.709h4.257
		v4.259h-4.257V32.709z M25.408,38.183h4.257v4.26h-4.257V38.183z M29.665,47.917h-4.257v-4.26h4.257V47.917z M35.143,47.917h-4.26
		v-4.26h4.26V47.917z M40.617,47.917h-4.26v-4.26h4.26V47.917z M46.092,47.917h-4.26v-4.26h4.26V47.917z M46.092,42.442h-4.26v-4.26
		h4.26V42.442z M46.092,32.709v4.259h-4.26v-4.259H46.092z M46.092,32.709"/>
</g>
</svg>
