<?xml version="1.0" encoding="utf-8"?>
<!-- Generator: Adobe Illustrator 16.0.0, SVG Export Plug-In . SVG Version: 6.00 Build 0)  -->
<!DOCTYPE svg PUBLIC "-//W3C//DTD SVG 1.1//EN" "http://www.w3.org/Graphics/SVG/1.1/DTD/svg11.dtd">
<svg version="1.1" id="Capa_1" xmlns="http://www.w3.org/2000/svg" xmlns:xlink="http://www.w3.org/1999/xlink" x="0px" y="0px"
	 width="71.5px" height="71.5px" viewBox="0 0 71.5 71.5" enable-background="new 0 0 71.5 71.5" xml:space="preserve">
<circle fill="#FF7B00" cx="35.75" cy="35.75" r="35"/>
<g>
	<path fill="#FFFFFF" d="M37.789,31.528c-0.28,0.174-0.369,0.542-0.195,0.825c0.114,0.184,0.311,0.284,0.512,0.284
		c0.107,0,0.216-0.029,0.313-0.089c1.454-0.898,2.323-2.451,2.323-4.158c0-2.692-2.191-4.882-4.885-4.882
		c-1.715,0-3.324,0.917-4.201,2.394c-0.168,0.285-0.074,0.651,0.211,0.822c0.285,0.168,0.651,0.074,0.82-0.211
		c0.661-1.114,1.877-1.807,3.17-1.807c2.032,0,3.684,1.652,3.684,3.684C39.541,29.678,38.887,30.851,37.789,31.528L37.789,31.528z
		 M37.789,31.528"/>
	<g>
		<path fill="#FFFFFF" d="M43.217,17.162H28.499c-2.134,0-3.87,1.736-3.87,3.87v12.12c0,0.332,0.27,0.6,0.601,0.6
			s0.599-0.268,0.599-0.6V21.684h20.06v28.134h-11.23c-0.331,0-0.6,0.269-0.6,0.6s0.269,0.6,0.6,0.6h11.175
			c-0.256,1.209-1.331,2.122-2.615,2.122H28.499c-0.331,0-0.599,0.268-0.599,0.6c0,0.329,0.268,0.599,0.599,0.599h14.718
			c2.134,0,3.87-1.736,3.87-3.87V21.032C47.087,18.898,45.351,17.162,43.217,17.162L43.217,17.162z M28.499,18.361h14.718
			c1.284,0,2.36,0.911,2.615,2.122H25.887C26.139,19.272,27.216,18.361,28.499,18.361L28.499,18.361z M28.499,18.361"/>
		<path fill="#FFFFFF" d="M37.539,44.991c0.445-0.446,0.691-1.038,0.691-1.669s-0.246-1.223-0.691-1.668
			c-0.493-0.494-1.155-0.724-1.802-0.687c0.036-0.648-0.192-1.309-0.688-1.802c-0.445-0.445-1.036-0.691-1.667-0.691
			c-0.044,0-0.09,0.002-0.134,0.004c0.037-0.647-0.192-1.307-0.688-1.801c-0.297-0.299-0.655-0.5-1.035-0.605l5.903-5.902
			c0.92-0.922,0.92-2.418,0-3.337c-0.919-0.922-2.417-0.922-3.335,0l-11.9,11.897c-1.696,1.699-2.499,3.989-2.228,6.326
			l-8.257,8.257c-0.233,0.234-0.233,0.613,0,0.849c0.118,0.116,0.271,0.175,0.425,0.175c0.154,0,0.307-0.059,0.424-0.175
			l8.467-8.468c0.137-0.136,0.198-0.329,0.169-0.518c-0.323-2.061,0.35-4.101,1.849-5.598L34.941,27.68
			c0.452-0.452,1.188-0.452,1.641,0s0.452,1.188,0,1.641l-7.356,7.357c-0.117,0.116-0.176,0.271-0.176,0.423
			c0,0.153,0.059,0.308,0.176,0.424c0.234,0.234,0.615,0.234,0.849,0c0.451-0.452,1.189-0.452,1.639,0
			c0.454,0.454,0.454,1.188,0,1.642c-0.116,0.117-0.175,0.27-0.175,0.423c0,0.154,0.059,0.308,0.175,0.425
			c0.235,0.233,0.616,0.233,0.849,0c0.454-0.452,1.189-0.452,1.642,0s0.452,1.188,0,1.641c-0.118,0.117-0.177,0.271-0.177,0.425
			c0,0.152,0.059,0.306,0.177,0.423c0.233,0.235,0.613,0.235,0.847,0c0.454-0.452,1.188-0.452,1.642,0
			c0.451,0.453,0.451,1.189,0,1.641l-4.543,4.543c-1.498,1.497-3.538,2.171-5.599,1.848c-0.188-0.029-0.381,0.033-0.517,0.169
			l-2.612,2.611c-0.233,0.234-0.233,0.614,0,0.849s0.614,0.234,0.85,0l2.4-2.402c2.338,0.273,4.628-0.528,6.325-2.227L37.539,44.991
			z M37.539,44.991"/>
	</g>
</g>
</svg>
