<?xml version="1.0" encoding="utf-8"?>
<!-- Generator: Adobe Illustrator 16.0.0, SVG Export Plug-In . SVG Version: 6.00 Build 0)  -->
<!DOCTYPE svg PUBLIC "-//W3C//DTD SVG 1.1//EN" "http://www.w3.org/Graphics/SVG/1.1/DTD/svg11.dtd">
<svg version="1.1" id="Capa_1" xmlns="http://www.w3.org/2000/svg" xmlns:xlink="http://www.w3.org/1999/xlink" x="0px" y="0px"
	 width="71.5px" height="71.5px" viewBox="0 0 71.5 71.5" enable-background="new 0 0 71.5 71.5" xml:space="preserve">
<circle fill="#FF7B00" cx="35.75" cy="35.75" r="35"/>
<g>
	<path fill="#FFFFFF" d="M21.729,25.933c2.465,0,4.509-1.831,4.851-4.208h27.398c0.391,0,0.702-0.311,0.702-0.697
		c0-0.391-0.312-0.702-0.702-0.702H26.58c-0.342-2.376-2.386-4.207-4.851-4.207c-2.708,0-4.91,2.201-4.91,4.909
		C16.819,23.732,19.021,25.933,21.729,25.933L21.729,25.933z M21.729,17.521c1.931,0,3.505,1.571,3.505,3.506
		c0,1.931-1.574,3.506-3.505,3.506c-1.935,0-3.506-1.575-3.506-3.506C18.224,19.093,19.795,17.521,21.729,17.521L21.729,17.521z
		 M21.729,17.521"/>
	<path fill="#FFFFFF" d="M49.774,45.566c-2.469,0-4.513,1.831-4.855,4.203H17.521c-0.387,0-0.702,0.316-0.702,0.703
		s0.315,0.702,0.702,0.702h27.397c0.343,2.372,2.387,4.207,4.855,4.207c2.704,0,4.906-2.201,4.906-4.909
		C54.681,47.768,52.479,45.566,49.774,45.566L49.774,45.566z M49.774,53.979c-1.935,0-3.506-1.572-3.506-3.506
		c0-1.931,1.571-3.506,3.506-3.506c1.931,0,3.506,1.575,3.506,3.506C53.28,52.406,51.705,53.979,49.774,53.979L49.774,53.979z
		 M49.774,53.979"/>
	<path fill="#FFFFFF" d="M53.979,35.05H40.918c-0.281-2.526-2.424-4.499-5.022-4.499s-4.741,1.973-5.022,4.499H17.521
		c-0.387,0-0.702,0.312-0.702,0.698c0,0.391,0.315,0.702,0.702,0.702h13.396c0.403,2.386,2.479,4.208,4.978,4.208
		c2.496,0,4.57-1.822,4.975-4.208h13.108c0.391,0,0.702-0.312,0.702-0.702C54.681,35.361,54.369,35.05,53.979,35.05L53.979,35.05z
		 M35.896,39.253c-2.013,0-3.649-1.636-3.649-3.648s1.637-3.649,3.649-3.649c2.012,0,3.649,1.637,3.649,3.649
		S37.907,39.253,35.896,39.253L35.896,39.253z M35.896,39.253"/>
</g>
</svg>
