<?xml version="1.0" encoding="utf-8"?>
<!-- Generator: Adobe Illustrator 16.0.0, SVG Export Plug-In . SVG Version: 6.00 Build 0)  -->
<!DOCTYPE svg PUBLIC "-//W3C//DTD SVG 1.1//EN" "http://www.w3.org/Graphics/SVG/1.1/DTD/svg11.dtd">
<svg version="1.1" id="Capa_1" xmlns="http://www.w3.org/2000/svg" xmlns:xlink="http://www.w3.org/1999/xlink" x="0px" y="0px"
	 width="71.5px" height="71.5px" viewBox="0 0 71.5 71.5" enable-background="new 0 0 71.5 71.5" xml:space="preserve">
<g>
	<path fill="none" stroke="#FFFFFF" stroke-width="3" stroke-linecap="round" stroke-miterlimit="10" d="M-239.374,107.413
		c18.901-18.897,18.901-49.535,0-68.432"/>
	<path fill="none" stroke="#FFFFFF" stroke-width="3" stroke-linecap="round" stroke-miterlimit="10" d="M-220.518,123.109
		c27.563-27.564,27.563-72.255,0-99.821"/>
	<path fill="none" stroke="#FFFFFF" stroke-width="3" stroke-linecap="round" stroke-miterlimit="10" d="M-203.343,143.621
		c38.873-38.878,38.873-101.907-0.004-140.781"/>
</g>
<circle fill="#FF7B00" cx="-122" cy="35.75" r="35"/>
<g>
	<path fill="#FFFFFF" d="M-136.021,25.933c2.465,0,4.509-1.831,4.851-4.208h27.398c0.391,0,0.702-0.311,0.702-0.697
		c0-0.391-0.312-0.702-0.702-0.702h-27.398c-0.342-2.376-2.386-4.207-4.851-4.207c-2.708,0-4.91,2.201-4.91,4.909
		C-140.931,23.732-138.729,25.933-136.021,25.933L-136.021,25.933z M-136.021,17.521c1.931,0,3.505,1.571,3.505,3.506
		c0,1.931-1.574,3.506-3.505,3.506c-1.935,0-3.506-1.575-3.506-3.506C-139.526,19.093-137.955,17.521-136.021,17.521
		L-136.021,17.521z M-136.021,17.521"/>
	<path fill="#FFFFFF" d="M-107.976,45.566c-2.469,0-4.513,1.831-4.855,4.203h-27.397c-0.387,0-0.702,0.316-0.702,0.703
		s0.315,0.702,0.702,0.702h27.397c0.343,2.372,2.387,4.207,4.855,4.207c2.704,0,4.906-2.201,4.906-4.909
		C-103.069,47.768-105.271,45.566-107.976,45.566L-107.976,45.566z M-107.976,53.979c-1.935,0-3.506-1.572-3.506-3.506
		c0-1.931,1.571-3.506,3.506-3.506c1.931,0,3.506,1.575,3.506,3.506C-104.47,52.406-106.045,53.979-107.976,53.979L-107.976,53.979z
		 M-107.976,53.979"/>
	<path fill="#FFFFFF" d="M-103.771,35.05h-13.061c-0.281-2.526-2.424-4.499-5.022-4.499s-4.741,1.973-5.022,4.499h-13.352
		c-0.387,0-0.702,0.312-0.702,0.698c0,0.391,0.315,0.702,0.702,0.702h13.396c0.403,2.386,2.479,4.208,4.978,4.208
		c2.496,0,4.57-1.822,4.975-4.208h13.108c0.391,0,0.702-0.312,0.702-0.702C-103.069,35.361-103.381,35.05-103.771,35.05
		L-103.771,35.05z M-121.854,39.253c-2.013,0-3.649-1.636-3.649-3.648s1.637-3.649,3.649-3.649c2.012,0,3.649,1.637,3.649,3.649
		S-119.843,39.253-121.854,39.253L-121.854,39.253z M-121.854,39.253"/>
</g>
<circle fill="#FF7B00" cx="-43" cy="35.75" r="35"/>
<circle fill="#FF7B00" cx="-123.25" cy="112.75" r="35"/>
<g>
	<path fill="#FFFFFF" d="M-123.25,110.06c2.598,0,4.71-2.111,4.71-4.71c0-2.596-2.112-4.706-4.71-4.706s-4.71,2.11-4.71,4.706
		C-127.96,107.948-125.848,110.06-123.25,110.06L-123.25,110.06z M-123.25,101.986c1.855,0,3.363,1.511,3.363,3.363
		c0,1.855-1.508,3.363-3.363,3.363s-3.363-1.508-3.363-3.363C-126.613,103.497-125.105,101.986-123.25,101.986L-123.25,101.986z
		 M-123.25,101.986"/>
	<path fill="#FFFFFF" d="M-123.368,129.403l10.32-14.906c3.869-5.16,3.311-13.642-1.199-18.147c-2.437-2.437-5.676-3.78-9.121-3.78
		s-6.688,1.344-9.121,3.777c-4.51,4.509-5.072,12.99-1.216,18.131L-123.368,129.403z M-131.54,97.299
		c2.184-2.182,5.084-3.382,8.172-3.382c3.084,0,5.987,1.2,8.169,3.382c4.069,4.07,4.572,11.729,1.058,16.413l-9.227,13.329
		l-9.243-13.349C-136.109,109.028-135.61,101.369-131.54,97.299L-131.54,97.299z M-131.54,97.299"/>
	<path fill="#FFFFFF" d="M-115.098,121.5c-0.371-0.046-0.706,0.221-0.749,0.588c-0.043,0.371,0.221,0.703,0.592,0.749
		c7.071,0.831,10.839,3.074,10.839,4.375c0,1.826-7.164,4.372-18.834,4.372s-18.834-2.546-18.834-4.372
		c0-1.301,3.768-3.544,10.839-4.375c0.371-0.046,0.635-0.381,0.592-0.749c-0.046-0.367-0.378-0.634-0.749-0.588
		c-7.082,0.835-12.028,3.183-12.028,5.712c0,2.842,6.931,5.719,20.181,5.719s20.181-2.877,20.181-5.719
		C-103.069,124.683-108.016,122.335-115.098,121.5L-115.098,121.5z M-115.098,121.5"/>
</g>
<circle fill="#FF7B00" cx="-43" cy="112.75" r="35"/>
<g>
	<path fill="#FFFFFF" d="M-27.57,49.426c3.234-3.644,5.2-8.435,5.2-13.676c0-5.454-2.129-10.418-5.6-14.11
		c-0.003-0.004-0.007-0.007-0.007-0.011c-3.615-3.837-8.678-6.297-14.308-6.491l-0.403-0.011c-0.104-0.003-0.208-0.007-0.313-0.007
		s-0.209,0.003-0.313,0.007l-0.399,0.011c-5.631,0.194-10.696,2.654-14.309,6.491c-0.003,0.004-0.007,0.007-0.007,0.011
		c0,0,0,0-0.003,0c-3.467,3.692-5.6,8.656-5.6,14.11c0,5.241,1.969,10.032,5.2,13.676c0.007,0.007,0.007,0.014,0.011,0.021
		c0.013,0.017,0.03,0.023,0.045,0.041c3.633,4.061,8.844,6.676,14.662,6.874l0.399,0.015c0.104,0,0.208,0.003,0.313,0.003
		s0.209-0.003,0.313-0.007l0.399-0.011h0.004c5.821-0.198,11.039-2.82,14.673-6.888c0.006-0.015,0.024-0.018,0.03-0.032
		C-27.574,49.439-27.574,49.433-27.57,49.426L-27.57,49.426z M-62.188,36.462h8.538c0.08,3.015,0.671,5.946,1.72,8.691
		c-2.024,0.733-3.96,1.712-5.773,2.938C-60.368,44.921-62.028,40.881-62.188,36.462L-62.188,36.462z M-57.314,22.963
		c1.771,1.149,3.653,2.07,5.62,2.762c-1.202,2.921-1.869,6.072-1.956,9.313h-8.538C-62.019,30.411-60.208,26.193-57.314,22.963
		L-57.314,22.963z M-23.808,35.038h-8.542c-0.087-3.241-0.751-6.391-1.956-9.313c1.967-0.692,3.853-1.612,5.62-2.762
		C-25.792,26.193-23.979,30.411-23.808,35.038L-23.808,35.038z M-43.712,25.763c-2.056-0.056-4.075-0.364-6.023-0.911
		c1.441-2.959,3.478-5.63,6.023-7.854V25.763z M-43.712,27.187v7.851h-8.515c0.088-3.091,0.736-6.092,1.896-8.872
		C-48.192,26.784-45.974,27.128-43.712,27.187L-43.712,27.187z M-42.288,27.187c2.262-0.059,4.48-0.403,6.621-1.021
		c1.16,2.779,1.809,5.78,1.896,8.872h-8.518V27.187z M-42.288,25.763v-8.764c2.55,2.223,4.585,4.894,6.026,7.854
		C-38.213,25.399-40.232,25.708-42.288,25.763L-42.288,25.763z M-34.883,24.419c-1.367-2.863-3.265-5.471-5.612-7.708
		c4.168,0.545,7.916,2.429,10.803,5.208C-31.332,22.956-33.072,23.794-34.883,24.419L-34.883,24.419z M-51.114,24.419
		c-1.813-0.625-3.554-1.463-5.189-2.5c2.886-2.779,6.634-4.663,10.799-5.208C-47.853,18.948-49.75,21.556-51.114,24.419
		L-51.114,24.419z M-52.227,36.462h8.515v7.143c-2.352,0.062-4.655,0.427-6.871,1.093C-51.583,42.1-52.146,39.32-52.227,36.462
		L-52.227,36.462z M-43.712,45.024v9.477c-2.728-2.379-4.863-5.27-6.318-8.479C-47.991,45.421-45.872,45.088-43.712,45.024
		L-43.712,45.024z M-42.288,54.501v-9.477c2.16,0.063,4.279,0.396,6.318,0.997C-37.422,49.231-39.561,52.122-42.288,54.501
		L-42.288,54.501z M-42.288,43.604v-7.143h8.518c-0.08,2.858-0.644,5.638-1.646,8.24C-37.63,44.031-39.937,43.666-42.288,43.604
		L-42.288,43.604z M-32.35,36.462h8.542c-0.164,4.419-1.82,8.459-4.488,11.629c-1.813-1.226-3.749-2.204-5.77-2.938
		C-33.017,42.408-32.43,39.477-32.35,36.462L-32.35,36.462z M-56.734,49.158c1.681-1.118,3.474-2.019,5.346-2.688
		c1.386,3.099,3.369,5.927,5.884,8.319C-49.881,54.217-53.796,52.17-56.734,49.158L-56.734,49.158z M-40.495,54.789
		c2.515-2.393,4.501-5.218,5.884-8.319c1.872,0.67,3.665,1.57,5.35,2.688C-32.204,52.17-36.119,54.217-40.495,54.789L-40.495,54.789
		z M-40.495,54.789"/>
</g>
<circle fill="#FF7B00" cx="35.75" cy="35.75" r="35"/>
<g>
	<g>
		<defs>
			<rect id="SVGID_1_" x="19.75" y="16.539" width="37" height="37"/>
		</defs>
		<clipPath id="SVGID_2_">
			<use xlink:href="#SVGID_1_"  overflow="visible"/>
		</clipPath>
		<path clip-path="url(#SVGID_2_)" fill="#FFFFFF" d="M55.508,18.79l-1.724-1.724c-0.702-0.7-1.848-0.704-2.552,0.003l-1.892,1.889
			H19.75v33.856h33.856v-29.57l0.185-0.187l1.717-1.714C56.21,20.64,56.21,19.496,55.508,18.79L55.508,18.79z M31.871,38.757
			l1.946,1.949l-2.678,0.729L31.871,38.757z M51.224,23.915l-2.562-2.566l0.853-0.853l2.566,2.562L51.224,23.915z M50.372,24.771
			L34.98,40.159l-2.563-2.564l15.389-15.389L50.372,24.771z M52.396,24.451v27.152H20.96V20.166h27.173l-17,17l-0.111,0.116
			l-1.285,4.701l-0.74,0.74c-0.235,0.236-0.235,0.622,0,0.857c0.118,0.118,0.273,0.176,0.429,0.176c0.152,0,0.309-0.058,0.427-0.176
			l0.742-0.742l4.701-1.283l16.202-16.201L52.396,24.451z M54.651,20.487l-1.714,1.719l-2.565-2.566l1.714-1.717
			c0.234-0.23,0.612-0.23,0.842,0l1.724,1.724C54.885,19.877,54.885,20.257,54.651,20.487L54.651,20.487z M54.651,20.487"/>
	</g>
</g>
<g>
	<path fill="#FFFFFF" d="M-26.575,96.933h-4.26v-1.823c0-0.336-0.271-0.609-0.605-0.609h-4.26c-0.336,0-0.609,0.273-0.609,0.609
		v1.823H-49.69v-1.823c0-0.336-0.273-0.609-0.609-0.609h-4.26c-0.335,0-0.608,0.273-0.608,0.609v1.823h-4.257
		c-0.336,0-0.608,0.274-0.608,0.608v32.85c0,0.336,0.272,0.609,0.608,0.609h32.85c0.336,0,0.608-0.273,0.608-0.609v-32.85
		C-25.967,97.207-26.239,96.933-26.575,96.933L-26.575,96.933z M-35.092,95.719h3.042v3.646h-3.042V95.719z M-53.95,95.719h3.042
		v3.646h-3.042V95.719z M-58.815,98.15h3.647v1.824c0,0.336,0.273,0.609,0.608,0.609h4.26c0.336,0,0.609-0.273,0.609-0.609V98.15
		h13.381v1.824c0,0.336,0.273,0.609,0.609,0.609h4.26c0.335,0,0.605-0.273,0.605-0.609V98.15h3.65v5.475h-31.631V98.15z
		 M-58.815,129.782v-24.938h31.631v24.938H-58.815z M-58.815,129.782"/>
	<path fill="#FFFFFF" d="M-38.133,108.49H-54.56v17.645h23.119V108.49H-38.133z M-42.393,109.709h4.26v4.259h-4.26V109.709z
		 M-38.133,119.442h-4.26v-4.26h4.26V119.442z M-47.867,115.183h4.26v4.26h-4.26V115.183z M-47.867,109.709h4.26v4.259h-4.26
		V109.709z M-53.342,109.709h4.257v4.259h-4.257V109.709z M-53.342,115.183h4.257v4.26h-4.257V115.183z M-49.085,124.917h-4.257
		v-4.26h4.257V124.917z M-43.607,124.917h-4.26v-4.26h4.26V124.917z M-38.133,124.917h-4.26v-4.26h4.26V124.917z M-32.658,124.917
		h-4.26v-4.26h4.26V124.917z M-32.658,119.442h-4.26v-4.26h4.26V119.442z M-32.658,109.709v4.259h-4.26v-4.259H-32.658z
		 M-32.658,109.709"/>
</g>
<circle fill="#FF7B00" cx="35.75" cy="112.75" r="35"/>
<g>
	<path fill="#FFFFFF" d="M37.789,108.528c-0.28,0.174-0.369,0.542-0.195,0.825c0.114,0.184,0.311,0.284,0.512,0.284
		c0.107,0,0.216-0.029,0.313-0.089c1.454-0.898,2.323-2.451,2.323-4.158c0-2.692-2.191-4.882-4.885-4.882
		c-1.715,0-3.324,0.917-4.201,2.394c-0.168,0.285-0.074,0.651,0.211,0.822c0.285,0.168,0.651,0.074,0.82-0.211
		c0.661-1.114,1.877-1.807,3.17-1.807c2.032,0,3.684,1.652,3.684,3.684C39.541,106.678,38.887,107.851,37.789,108.528
		L37.789,108.528z M37.789,108.528"/>
	<g>
		<path fill="#FFFFFF" d="M43.217,94.162H28.499c-2.134,0-3.87,1.736-3.87,3.87v12.12c0,0.332,0.27,0.6,0.601,0.6
			s0.599-0.268,0.599-0.6V98.684h20.06v28.134h-11.23c-0.331,0-0.6,0.269-0.6,0.6s0.269,0.6,0.6,0.6h11.175
			c-0.256,1.209-1.331,2.122-2.615,2.122H28.499c-0.331,0-0.599,0.268-0.599,0.6c0,0.329,0.268,0.599,0.599,0.599h14.718
			c2.134,0,3.87-1.736,3.87-3.87V98.032C47.087,95.898,45.351,94.162,43.217,94.162L43.217,94.162z M28.499,95.361h14.718
			c1.284,0,2.36,0.911,2.615,2.122H25.887C26.139,96.272,27.216,95.361,28.499,95.361L28.499,95.361z M28.499,95.361"/>
		<path fill="#FFFFFF" d="M37.539,121.991c0.445-0.446,0.691-1.038,0.691-1.669s-0.246-1.223-0.691-1.668
			c-0.493-0.494-1.155-0.724-1.802-0.687c0.036-0.648-0.192-1.309-0.688-1.802c-0.445-0.445-1.036-0.691-1.667-0.691
			c-0.044,0-0.09,0.002-0.134,0.004c0.037-0.647-0.192-1.307-0.688-1.801c-0.297-0.299-0.655-0.5-1.035-0.605l5.903-5.902
			c0.92-0.922,0.92-2.418,0-3.337c-0.919-0.922-2.417-0.922-3.335,0l-11.9,11.897c-1.696,1.699-2.499,3.989-2.228,6.326
			l-8.257,8.257c-0.233,0.234-0.233,0.613,0,0.849c0.118,0.116,0.271,0.175,0.425,0.175c0.154,0,0.307-0.059,0.424-0.175
			l8.467-8.468c0.137-0.136,0.198-0.329,0.169-0.518c-0.323-2.061,0.35-4.101,1.849-5.598l11.898-11.899
			c0.452-0.452,1.188-0.452,1.641,0s0.452,1.188,0,1.641l-7.356,7.357c-0.117,0.116-0.176,0.271-0.176,0.423
			c0,0.153,0.059,0.308,0.176,0.424c0.234,0.234,0.615,0.234,0.849,0c0.451-0.452,1.189-0.452,1.639,0
			c0.454,0.454,0.454,1.188,0,1.642c-0.116,0.117-0.175,0.27-0.175,0.423c0,0.154,0.059,0.308,0.175,0.425
			c0.235,0.233,0.616,0.233,0.849,0c0.454-0.452,1.189-0.452,1.642,0s0.452,1.188,0,1.641c-0.118,0.117-0.177,0.271-0.177,0.425
			c0,0.152,0.059,0.306,0.177,0.423c0.233,0.235,0.613,0.235,0.847,0c0.454-0.452,1.188-0.452,1.642,0
			c0.451,0.453,0.451,1.189,0,1.641l-4.543,4.543c-1.498,1.497-3.538,2.171-5.599,1.848c-0.188-0.029-0.381,0.033-0.517,0.169
			l-2.612,2.611c-0.233,0.234-0.233,0.614,0,0.849s0.614,0.234,0.85,0l2.4-2.402c2.338,0.273,4.628-0.528,6.325-2.227
			L37.539,121.991z M37.539,121.991"/>
	</g>
</g>
</svg>
