<?xml version="1.0" encoding="utf-8"?>
<!-- Generator: Adobe Illustrator 16.0.0, SVG Export Plug-In . SVG Version: 6.00 Build 0)  -->
<!DOCTYPE svg PUBLIC "-//W3C//DTD SVG 1.1//EN" "http://www.w3.org/Graphics/SVG/1.1/DTD/svg11.dtd">
<svg version="1.1" id="Capa_1" xmlns="http://www.w3.org/2000/svg" xmlns:xlink="http://www.w3.org/1999/xlink" x="0px" y="0px"
	 width="71.5px" height="71.5px" viewBox="0 0 71.5 71.5" enable-background="new 0 0 71.5 71.5" xml:space="preserve">
<g>
	<path fill="none" stroke="#FFFFFF" stroke-width="3" stroke-linecap="round" stroke-miterlimit="10" d="M-80.374,30.413
		c18.901-18.897,18.901-49.535,0-68.432"/>
	<path fill="none" stroke="#FFFFFF" stroke-width="3" stroke-linecap="round" stroke-miterlimit="10" d="M-61.518,46.109
		c27.563-27.564,27.563-72.255,0-99.821"/>
	<path fill="none" stroke="#FFFFFF" stroke-width="3" stroke-linecap="round" stroke-miterlimit="10" d="M-44.343,66.621
		C-5.471,27.743-5.471-35.286-44.347-74.16"/>
</g>
<circle fill="#FF7B00" cx="37" cy="-41.25" r="35"/>
<g>
	<path fill="#FFFFFF" d="M22.979-51.067c2.465,0,4.509-1.831,4.851-4.208h27.398c0.391,0,0.702-0.311,0.702-0.697
		c0-0.391-0.312-0.702-0.702-0.702H27.83c-0.342-2.376-2.386-4.207-4.851-4.207c-2.708,0-4.91,2.201-4.91,4.909
		C18.069-53.268,20.271-51.067,22.979-51.067L22.979-51.067z M22.979-59.479c1.931,0,3.505,1.571,3.505,3.506
		c0,1.931-1.574,3.506-3.505,3.506c-1.935,0-3.506-1.575-3.506-3.506C19.474-57.907,21.045-59.479,22.979-59.479L22.979-59.479z
		 M22.979-59.479"/>
	<path fill="#FFFFFF" d="M51.024-31.434c-2.469,0-4.513,1.831-4.855,4.203H18.771c-0.387,0-0.702,0.316-0.702,0.703
		s0.315,0.702,0.702,0.702h27.397c0.343,2.372,2.387,4.207,4.855,4.207c2.704,0,4.906-2.201,4.906-4.909
		C55.931-29.232,53.729-31.434,51.024-31.434L51.024-31.434z M51.024-23.021c-1.935,0-3.506-1.572-3.506-3.506
		c0-1.931,1.571-3.506,3.506-3.506c1.931,0,3.506,1.575,3.506,3.506C54.53-24.594,52.955-23.021,51.024-23.021L51.024-23.021z
		 M51.024-23.021"/>
	<path fill="#FFFFFF" d="M55.229-41.95H42.168c-0.281-2.526-2.424-4.499-5.022-4.499s-4.741,1.973-5.022,4.499H18.771
		c-0.387,0-0.702,0.312-0.702,0.698c0,0.391,0.315,0.702,0.702,0.702h13.396c0.403,2.386,2.479,4.208,4.978,4.208
		c2.496,0,4.57-1.822,4.975-4.208h13.108c0.391,0,0.702-0.312,0.702-0.702C55.931-41.639,55.619-41.95,55.229-41.95L55.229-41.95z
		 M37.146-37.747c-2.013,0-3.649-1.636-3.649-3.648s1.637-3.649,3.649-3.649c2.012,0,3.649,1.637,3.649,3.649
		S39.157-37.747,37.146-37.747L37.146-37.747z M37.146-37.747"/>
</g>
<circle fill="#FF7B00" cx="116" cy="-41.25" r="35"/>
<circle fill="#FF7B00" cx="35.75" cy="35.75" r="35"/>
<g>
	<path fill="#FFFFFF" d="M35.75,33.06c2.598,0,4.71-2.111,4.71-4.71c0-2.596-2.112-4.706-4.71-4.706s-4.71,2.11-4.71,4.706
		C31.04,30.948,33.152,33.06,35.75,33.06L35.75,33.06z M35.75,24.986c1.855,0,3.363,1.511,3.363,3.363
		c0,1.855-1.508,3.363-3.363,3.363s-3.363-1.508-3.363-3.363C32.387,26.497,33.895,24.986,35.75,24.986L35.75,24.986z M35.75,24.986
		"/>
	<path fill="#FFFFFF" d="M35.632,52.403l10.32-14.906c3.869-5.16,3.311-13.642-1.199-18.147c-2.437-2.437-5.676-3.78-9.121-3.78
		s-6.688,1.344-9.121,3.777c-4.51,4.509-5.072,12.99-1.216,18.131L35.632,52.403z M27.46,20.299
		c2.184-2.182,5.084-3.382,8.172-3.382c3.084,0,5.987,1.2,8.169,3.382c4.069,4.07,4.572,11.729,1.058,16.413l-9.227,13.329
		l-9.243-13.349C22.891,32.028,23.39,24.369,27.46,20.299L27.46,20.299z M27.46,20.299"/>
	<path fill="#FFFFFF" d="M43.902,44.5c-0.371-0.046-0.706,0.221-0.749,0.588c-0.043,0.371,0.221,0.703,0.592,0.749
		c7.071,0.831,10.839,3.074,10.839,4.375c0,1.826-7.164,4.372-18.834,4.372s-18.834-2.546-18.834-4.372
		c0-1.301,3.768-3.544,10.839-4.375c0.371-0.046,0.635-0.381,0.592-0.749c-0.046-0.367-0.378-0.634-0.749-0.588
		c-7.082,0.835-12.028,3.183-12.028,5.712c0,2.842,6.931,5.719,20.181,5.719s20.181-2.877,20.181-5.719
		C55.931,47.683,50.984,45.335,43.902,44.5L43.902,44.5z M43.902,44.5"/>
</g>
<circle fill="#FF7B00" cx="116" cy="35.75" r="35"/>
<g>
	<path fill="#FFFFFF" d="M131.43-27.574c3.234-3.644,5.2-8.435,5.2-13.676c0-5.454-2.129-10.418-5.6-14.11
		c-0.003-0.004-0.007-0.007-0.007-0.011c-3.615-3.837-8.678-6.297-14.308-6.491l-0.403-0.011c-0.104-0.003-0.208-0.007-0.313-0.007
		s-0.209,0.003-0.313,0.007l-0.399,0.011c-5.631,0.194-10.696,2.654-14.309,6.491c-0.003,0.004-0.007,0.007-0.007,0.011
		c0,0,0,0-0.003,0c-3.467,3.692-5.6,8.656-5.6,14.11c0,5.241,1.969,10.032,5.2,13.676c0.007,0.007,0.007,0.014,0.011,0.021
		c0.013,0.017,0.03,0.023,0.045,0.041c3.633,4.061,8.844,6.676,14.662,6.874l0.399,0.015c0.104,0,0.208,0.003,0.313,0.003
		s0.209-0.003,0.313-0.007l0.399-0.011h0.004c5.821-0.198,11.039-2.82,14.673-6.888c0.006-0.015,0.024-0.018,0.03-0.032
		C131.426-27.561,131.426-27.567,131.43-27.574L131.43-27.574z M96.812-40.538h8.538c0.08,3.015,0.671,5.946,1.72,8.691
		c-2.024,0.733-3.96,1.712-5.773,2.938C98.632-32.079,96.972-36.119,96.812-40.538L96.812-40.538z M101.686-54.037
		c1.771,1.149,3.653,2.07,5.62,2.762c-1.202,2.921-1.869,6.072-1.956,9.313h-8.538C96.981-46.589,98.792-50.807,101.686-54.037
		L101.686-54.037z M135.192-41.962h-8.542c-0.087-3.241-0.751-6.391-1.956-9.313c1.967-0.692,3.853-1.612,5.62-2.762
		C133.208-50.807,135.021-46.589,135.192-41.962L135.192-41.962z M115.288-51.237c-2.056-0.056-4.075-0.364-6.023-0.911
		c1.441-2.959,3.478-5.63,6.023-7.854V-51.237z M115.288-49.813v7.851h-8.515c0.088-3.091,0.736-6.092,1.896-8.872
		C110.808-50.216,113.026-49.872,115.288-49.813L115.288-49.813z M116.712-49.813c2.262-0.059,4.48-0.403,6.621-1.021
		c1.16,2.779,1.809,5.78,1.896,8.872h-8.518V-49.813z M116.712-51.237v-8.764c2.55,2.223,4.585,4.894,6.026,7.854
		C120.787-51.601,118.768-51.292,116.712-51.237L116.712-51.237z M124.117-52.581c-1.367-2.863-3.265-5.471-5.612-7.708
		c4.168,0.545,7.916,2.429,10.803,5.208C127.668-54.044,125.928-53.206,124.117-52.581L124.117-52.581z M107.886-52.581
		c-1.813-0.625-3.554-1.463-5.189-2.5c2.886-2.779,6.634-4.663,10.799-5.208C111.147-58.052,109.25-55.444,107.886-52.581
		L107.886-52.581z M106.773-40.538h8.515v7.143c-2.352,0.062-4.655,0.427-6.871,1.093C107.417-34.9,106.854-37.68,106.773-40.538
		L106.773-40.538z M115.288-31.976v9.477c-2.728-2.379-4.863-5.27-6.318-8.479C111.009-31.579,113.128-31.912,115.288-31.976
		L115.288-31.976z M116.712-22.499v-9.477c2.16,0.063,4.279,0.396,6.318,0.997C121.578-27.769,119.439-24.878,116.712-22.499
		L116.712-22.499z M116.712-33.396v-7.143h8.518c-0.08,2.858-0.644,5.638-1.646,8.24C121.37-32.969,119.063-33.334,116.712-33.396
		L116.712-33.396z M126.65-40.538h8.542c-0.164,4.419-1.82,8.459-4.488,11.629c-1.813-1.226-3.749-2.204-5.77-2.938
		C125.983-34.592,126.57-37.523,126.65-40.538L126.65-40.538z M102.266-27.842c1.681-1.118,3.474-2.019,5.346-2.688
		c1.386,3.099,3.369,5.927,5.884,8.319C109.119-22.783,105.204-24.83,102.266-27.842L102.266-27.842z M118.505-22.211
		c2.515-2.393,4.501-5.218,5.884-8.319c1.872,0.67,3.665,1.57,5.35,2.688C126.796-24.83,122.881-22.783,118.505-22.211
		L118.505-22.211z M118.505-22.211"/>
</g>
<circle fill="#FF7B00" cx="194.75" cy="-41.25" r="35"/>
<g>
	<g>
		<defs>
			<rect id="SVGID_1_" x="178.75" y="-60.461" width="37" height="37"/>
		</defs>
		<clipPath id="SVGID_2_">
			<use xlink:href="#SVGID_1_"  overflow="visible"/>
		</clipPath>
		<path clip-path="url(#SVGID_2_)" fill="#FFFFFF" d="M214.508-58.21l-1.724-1.724c-0.702-0.7-1.848-0.704-2.552,0.003l-1.892,1.889
			H178.75v33.856h33.856v-29.57l0.185-0.187l1.717-1.714C215.21-56.36,215.21-57.504,214.508-58.21L214.508-58.21z M190.871-38.243
			l1.946,1.949l-2.678,0.729L190.871-38.243z M210.224-53.085l-2.562-2.566l0.853-0.853l2.566,2.562L210.224-53.085z
			 M209.372-52.229L193.98-36.841l-2.563-2.564l15.389-15.389L209.372-52.229z M211.396-52.549v27.152H179.96v-31.438h27.173l-17,17
			l-0.111,0.116l-1.285,4.701l-0.74,0.74c-0.235,0.236-0.235,0.622,0,0.857c0.118,0.118,0.273,0.176,0.429,0.176
			c0.152,0,0.309-0.058,0.427-0.176l0.742-0.742l4.701-1.283l16.202-16.201L211.396-52.549z M213.651-56.513l-1.714,1.719
			l-2.565-2.566l1.714-1.717c0.234-0.23,0.612-0.23,0.842,0l1.724,1.724C213.885-57.123,213.885-56.743,213.651-56.513
			L213.651-56.513z M213.651-56.513"/>
	</g>
</g>
<g>
	<path fill="#FFFFFF" d="M132.425,19.933h-4.26v-1.823c0-0.336-0.271-0.609-0.605-0.609h-4.26c-0.336,0-0.609,0.273-0.609,0.609
		v1.823H109.31v-1.823c0-0.336-0.273-0.609-0.609-0.609h-4.26c-0.335,0-0.608,0.273-0.608,0.609v1.823h-4.257
		c-0.336,0-0.608,0.274-0.608,0.608v32.85c0,0.336,0.272,0.609,0.608,0.609h32.85c0.336,0,0.608-0.273,0.608-0.609v-32.85
		C133.033,20.207,132.761,19.933,132.425,19.933L132.425,19.933z M123.908,18.719h3.042v3.646h-3.042V18.719z M105.05,18.719h3.042
		v3.646h-3.042V18.719z M100.185,21.15h3.647v1.824c0,0.336,0.273,0.609,0.608,0.609h4.26c0.336,0,0.609-0.273,0.609-0.609V21.15
		h13.381v1.824c0,0.336,0.273,0.609,0.609,0.609h4.26c0.335,0,0.605-0.273,0.605-0.609V21.15h3.65v5.475h-31.631V21.15z
		 M100.185,52.782V27.844h31.631v24.938H100.185z M100.185,52.782"/>
	<path fill="#FFFFFF" d="M120.867,31.49H104.44v17.645h23.119V31.49H120.867z M116.607,32.709h4.26v4.259h-4.26V32.709z
		 M120.867,42.442h-4.26v-4.26h4.26V42.442z M111.133,38.183h4.26v4.26h-4.26V38.183z M111.133,32.709h4.26v4.259h-4.26V32.709z
		 M105.658,32.709h4.257v4.259h-4.257V32.709z M105.658,38.183h4.257v4.26h-4.257V38.183z M109.915,47.917h-4.257v-4.26h4.257
		V47.917z M115.393,47.917h-4.26v-4.26h4.26V47.917z M120.867,47.917h-4.26v-4.26h4.26V47.917z M126.342,47.917h-4.26v-4.26h4.26
		V47.917z M126.342,42.442h-4.26v-4.26h4.26V42.442z M126.342,32.709v4.259h-4.26v-4.259H126.342z M126.342,32.709"/>
</g>
<circle fill="#FF7B00" cx="194.75" cy="35.75" r="35"/>
<g>
	<path fill="#FFFFFF" d="M196.789,31.528c-0.28,0.174-0.369,0.542-0.195,0.825c0.114,0.184,0.311,0.284,0.512,0.284
		c0.107,0,0.216-0.029,0.313-0.089c1.454-0.898,2.323-2.451,2.323-4.158c0-2.692-2.191-4.882-4.885-4.882
		c-1.715,0-3.324,0.917-4.201,2.394c-0.168,0.285-0.074,0.651,0.211,0.822c0.285,0.168,0.651,0.074,0.82-0.211
		c0.661-1.114,1.877-1.807,3.17-1.807c2.032,0,3.684,1.652,3.684,3.684C198.541,29.678,197.887,30.851,196.789,31.528
		L196.789,31.528z M196.789,31.528"/>
	<g>
		<path fill="#FFFFFF" d="M202.217,17.162h-14.718c-2.134,0-3.87,1.736-3.87,3.87v12.12c0,0.332,0.27,0.6,0.601,0.6
			s0.599-0.268,0.599-0.6V21.684h20.06v28.134h-11.23c-0.331,0-0.6,0.269-0.6,0.6s0.269,0.6,0.6,0.6h11.175
			c-0.256,1.209-1.331,2.122-2.615,2.122h-14.718c-0.331,0-0.599,0.268-0.599,0.6c0,0.329,0.268,0.599,0.599,0.599h14.718
			c2.134,0,3.87-1.736,3.87-3.87V21.032C206.087,18.898,204.351,17.162,202.217,17.162L202.217,17.162z M187.499,18.361h14.718
			c1.284,0,2.36,0.911,2.615,2.122h-19.945C185.139,19.272,186.216,18.361,187.499,18.361L187.499,18.361z M187.499,18.361"/>
		<path fill="#FFFFFF" d="M196.539,44.991c0.445-0.446,0.691-1.038,0.691-1.669s-0.246-1.223-0.691-1.668
			c-0.493-0.494-1.155-0.724-1.802-0.687c0.036-0.648-0.192-1.309-0.688-1.802c-0.445-0.445-1.036-0.691-1.667-0.691
			c-0.044,0-0.09,0.002-0.134,0.004c0.037-0.647-0.192-1.307-0.688-1.801c-0.297-0.299-0.655-0.5-1.035-0.605l5.903-5.902
			c0.92-0.922,0.92-2.418,0-3.337c-0.919-0.922-2.417-0.922-3.335,0l-11.9,11.897c-1.696,1.699-2.499,3.989-2.228,6.326
			l-8.257,8.257c-0.233,0.234-0.233,0.613,0,0.849c0.118,0.116,0.271,0.175,0.425,0.175c0.154,0,0.307-0.059,0.424-0.175
			l8.467-8.468c0.137-0.136,0.198-0.329,0.169-0.518c-0.323-2.061,0.35-4.101,1.849-5.598l11.898-11.899
			c0.452-0.452,1.188-0.452,1.641,0s0.452,1.188,0,1.641l-7.356,7.357c-0.117,0.116-0.176,0.271-0.176,0.423
			c0,0.153,0.059,0.308,0.176,0.424c0.234,0.234,0.615,0.234,0.849,0c0.451-0.452,1.189-0.452,1.639,0
			c0.454,0.454,0.454,1.188,0,1.642c-0.116,0.117-0.175,0.27-0.175,0.423c0,0.154,0.059,0.308,0.175,0.425
			c0.235,0.233,0.616,0.233,0.849,0c0.454-0.452,1.189-0.452,1.642,0s0.452,1.188,0,1.641c-0.118,0.117-0.177,0.271-0.177,0.425
			c0,0.152,0.059,0.306,0.177,0.423c0.233,0.235,0.613,0.235,0.847,0c0.454-0.452,1.188-0.452,1.642,0
			c0.451,0.453,0.451,1.189,0,1.641l-4.543,4.543c-1.498,1.497-3.538,2.171-5.599,1.848c-0.188-0.029-0.381,0.033-0.517,0.169
			l-2.612,2.611c-0.233,0.234-0.233,0.614,0,0.849s0.614,0.234,0.85,0l2.4-2.402c2.338,0.273,4.628-0.528,6.325-2.227
			L196.539,44.991z M196.539,44.991"/>
	</g>
</g>
</svg>
