<?xml version="1.0" encoding="utf-8"?>
<!-- Generator: Adobe Illustrator 22.1.0, SVG Export Plug-In . SVG Version: 6.00 Build 0)  -->
<svg version="1.1" id="Capa_1" xmlns="http://www.w3.org/2000/svg" xmlns:xlink="http://www.w3.org/1999/xlink" x="0px" y="0px"
	 viewBox="0 0 595.4 179.8" style="enable-background:new 0 0 595.4 179.8;" xml:space="preserve">
<style type="text/css">
	.st0{fill:#222220;}
	.st1{fill:#D33741;}
	.st2{fill:#FFFFFF;}
</style>
<path class="st0" d="M211.3,126.4V58.2h-14.8c-6.5,0-9.2-4.8-9.2-9.4c0-4.8,3.4-9.4,9.2-9.4h50c5.8,0,9.2,4.6,9.2,9.4
	c0,4.6-2.7,9.4-9.2,9.4h-14.8v68.2c0,6.8-4.3,10.6-10.2,10.6C215.7,137,211.3,133.2,211.3,126.4z"/>
<path class="st0" d="M401.7,112c-5.1,0-11.9,7.7-21.7,7.7c-8.9,0-16.8-4.4-18.1-13.9h41c5.9,0,8.4-2.8,8.4-8.5c0-16-13.8-35-34.6-35
	c-20.3,0-34.4,17.8-34.4,37.2c0,21.2,14.4,37,36,37c14.3,0,31.3-8,31.3-16.3C409.6,116.2,405.9,112,401.7,112z M363.5,86.4
	c2.5-4.8,7.2-8,13.2-8c4.2,0,7.6,1.4,10.1,3.7c3.1,2.7,5,6.7,5.6,11.4h-31.1C361.5,91,362.3,88.5,363.5,86.4z"/>
<path class="st0" d="M302.1,112c-5.1,0-11.9,7.7-21.7,7.7c-8.9,0-16.8-4.4-18.1-13.9h41c5.9,0,8.4-2.8,8.4-8.5c0-16-13.8-35-34.6-35
	c-20.3,0-34.4,17.8-34.4,37.2c0,21.2,14.4,37,36,37c14.3,0,31.3-8,31.3-16.3C310,116.2,306.2,112,302.1,112z M263.8,86.4
	c2.5-4.8,7.2-8,13.2-8c4.2,0,7.6,1.4,10.1,3.7c3.1,2.7,5,6.7,5.6,11.4h-31.1C261.9,91,262.6,88.5,263.8,86.4z"/>
<path class="st0" d="M489.6,62.4c-20.3,0-34.4,17.8-34.4,37.2c0,20,13.7,37,34.4,37c20.7,0,34.4-16.9,34.4-37
	C524,80.1,509.9,62.4,489.6,62.4z M500.5,113.6c-2.6,3.7-6.4,6.3-11.7,6.3c-10.6,0-15.5-10.3-15.5-19.7c0-8.5,3.9-17.9,12.5-19.7
	c1.2-0.3,2.4-0.5,3.7-0.5c10.5,0,15.2,10.4,15.2,19.6C504.8,104.6,503.4,109.8,500.5,113.6z"/>
<path class="st0" d="M531,126.1V73.9c0-6.5,4.1-10.9,9.8-10.9c5,0,8.3,2.7,9,7.2c3.8-5.3,9.7-8,18.9-8c15.4,0,26.8,9.8,26.8,26.4
	v37.5c0,6.5-4.1,10.9-9.8,10.9c-5.7,0-9.8-4.3-9.8-10.9V92c0-9.1-5.7-13.5-12.8-13.5c-8,0-12.5,5.8-12.5,13.5v34.1
	c0,6.5-4.1,10.9-9.8,10.9C535.1,136.9,531,132.6,531,126.1z"/>
<path class="st0" d="M423.1,126.1V81h-4.3c-5.3,0-8.6-3.3-8.6-8.6c0-4.9,3.7-8.6,8.6-8.6h4.3V52.2c0-6.5,4.1-10.9,9.8-10.9
	c5.7,0,9.8,4.3,9.8,10.9v11.7h5.6c5,0,9.4,2.3,9.4,8.6c0,6.1-4.3,8.6-9.4,8.6h-5.6v45.1c0,6.5-4.1,10.9-9.8,10.9
	C427.2,137,423.1,132.6,423.1,126.1z"/>
<path class="st0" d="M318.1,126.1V42.4c0-6.5,4.1-10.9,9.8-10.9c5.7,0,9.8,4.3,9.8,10.9v83.7c0,6.5-4.1,10.9-9.8,10.9
	C322.2,137,318.1,132.6,318.1,126.1z"/>
<path class="st1" d="M516.8,27.8c-1.2-0.5-2.4-0.8-3.6-1c-3.1-0.2-6.2,0.9-8.4,3.2c0,0,0,0,0,0c0.5-4.4-1.8-8.8-6-10.7
	c-0.3-0.1-0.6-0.3-0.9-0.4c-5-1.8-10.7,0.5-13,5.5c-1,2.2-1.2,4.5-0.7,6.7l4,23.3c0.1,0.6,0.3,1.1,0.5,1.7c0.1,0.1,0.1,0.3,0.2,0.4
	c1.6,2.8,5.2,3.8,8,2.1l20.4-11.9c1.9-1,3.6-2.7,4.6-4.9C524.3,36.5,522,30.3,516.8,27.8z"/>
<path class="st1" d="M179.9,86.7C179.9,86.7,179.9,86.7,179.9,86.7c-0.8-21.3-9-37.4-14.7-46.1c0,0-1.4-2.6-5.1-2.8
	c-3-0.2-5,2.4-5.2,2.6c0,0,0,0,0,0c0,0,0,0,0,0c-0.9,1.2-1.9,2.5-3,3.8c-3.1,3.7-7.2,7.9-12.2,11.9c-4.4,3.5-8.8,6.1-12.5,8
	c-0.1,0-0.2,0.1-0.3,0.1c0,0-0.1,0-0.1,0.1c-3.7,1.9-6.7,3.1-8.4,3.7c0,0-0.1,0-0.1,0c-0.2,0-0.5,0.1-0.7-0.1
	c-0.3-0.3-0.1-1.4-0.1-1.4c1.1-3.9,4.1-12.9,10.1-21.6c0.4-0.6,0.8-1.2,1.2-1.7c3.7-5,7.4-8.9,10.7-12c1.5-1.4,2.9-2.7,4.2-3.8
	c0,0,2.4-1.5,2.5-5c0.1-3-2.7-5-2.7-5c-9.3-7-28.5-18.2-55.4-17.4C67.4,0.6,51.7,7.8,42,13.9c-1.8,1.1-3.5,2.2-4.8,3.2
	c0,0-0.1,0.1-0.2,0.1c-0.4,0.3-1.3,1.1-1.9,2.4c-0.3,0.5-0.5,1.2-0.5,1.9C34.1,25,36.6,27,36.6,27c4.9,4.1,11.8,10.6,16.7,18.6
	c7,11.2,9,18.2,9.6,21.1c0,0,0.1,0.5,0,0.8c0,0.1-0.1,0.2-0.1,0.2c-0.4,0.3-1.2-0.1-1.2-0.1c-3.8-1.4-14.1-5.6-23.7-14.2
	c-5.5-4.9-9.6-9.7-12.4-13.5c0,0-1.7-2.6-5-2.5c-2.5,0-4,1.4-4.7,2.2c-0.3,0.4-0.5,0.6-0.5,0.6C8.9,50-0.8,68.6,0,89.9
	c0.9,23.7,9,40.2,14.6,49c0,0,2,2.9,5.2,2.7c0,0,0,0,0.1,0c0.3,0,0.5-0.1,0.8-0.1c0.1,0,0.3,0,0.4,0c0.2,0,0.3-0.1,0.5-0.1
	c0.2-0.1,0.4-0.1,0.5-0.2c0.1,0,0.1-0.1,0.2-0.1c1.7-0.7,2.4-1.8,2.4-1.8C28,134.6,33,128.6,39,124c2.6-2.1,5.3-3.9,7.9-5.5
	c6.4-4,12.2-6.7,14.9-7.8c0,0,0.4-0.2,0.8-0.1l0,0l0,0l0,0c0.1,0,0.2,0.1,0.3,0.2c0.3,0.3,0.1,0.9,0.1,0.9
	c-0.6,2.8-2.3,9.1-7.1,17.2c-1.1,1.9-2.4,3.8-3.8,5.9c-1.3,1.8-2.6,3.5-4,5.2c-4.4,5.3-8.9,9.4-12.3,12.2c0,0-2.1,1.5-2.1,4.6
	c0,0.1,0,0.1,0,0.1c0,2.1,1.1,3.6,1.8,4.3c0,0,0.1,0.1,0.1,0.1c0,0,0.1,0.1,0.1,0.1c0.3,0.3,0.5,0.4,0.5,0.4
	c9.9,7.1,30.1,19,54.4,18.1c0.1,0,0.2,0,0.3,0c26.4-1.1,44-11.2,52.6-17.7c0,0,2.6-1.6,2.6-4.9c0-3.3-2.2-4.8-2.2-4.8
	c-4.5-3.8-10.9-9.7-15.6-16.4c-7.1-10.2-11.4-24-11.4-24c0,0-0.1-0.5,0.1-0.9c0,0,0,0,0,0c0,0,0,0,0,0c0.2-0.3,1.1,0,1.1,0
	c3.7,1.5,13.3,5.8,22,12.8c6.2,5,11.3,11.1,14.7,15.9c0,0,1.7,2.5,5.1,2.5c0.2,0,0.4,0,0.5,0c0.1,0,0.2,0,0.3,0c0.1,0,0.1,0,0.2,0
	c0,0,0,0,0.1,0c0.3-0.1,0.6-0.1,0.9-0.2c0,0,0.1,0,0.1,0c0.3-0.1,0.5-0.2,0.8-0.3c0,0,0,0,0.1,0c0.5-0.3,0.9-0.6,1.2-0.9
	c0,0,0,0,0,0c0.7-0.6,1-1.2,1-1.2c6-9.5,14.9-27.4,14.9-49.7C179.9,88.7,179.9,87.7,179.9,86.7z"/>
<path class="st2" d="M8.3,87.9c0-0.2,0-0.4,0-0.6c0-16.4,6.9-31,12.2-39.8c0,0,0,0,0,0c0.1-0.1,0.2-0.2,0.3-0.2
	c0.2,0,0.5,0.2,0.6,0.4c3.4,4.1,7,8.1,11.1,11.7C45.8,71.4,60.2,75.8,60.9,76c0,0,4.1,1.4,7.1,0.2c0.4-0.1,0.7-0.3,1.1-0.5
	c0.7-0.5,1.2-1.2,1.6-2c0,0,0,0,0,0c1.3-2.6,0.8-6.2,0.8-6.2c-0.1-1.6-1.1-10.4-11.1-26.3c-4.7-7.6-10.9-13.8-15.9-18.3
	c0,0-0.2-0.2-0.2-0.5c0,0,0,0,0-0.1c0-0.2,0.2-0.3,0.2-0.3c8.3-5.6,23.4-13.2,43.9-13.8c22.4-0.6,38.8,7.9,47.8,14.1
	c0,0,0.1,0.1,0.1,0.2c0,0,0,0.1,0,0.2c0,0.2-0.3,0.5-0.3,0.5c-3.9,3.5-8.8,8.4-13.8,15.1c-5.7,7.7-9.3,15.9-11.3,21.4
	c0,0-0.8,2-1.3,4.7c0,0,0,0,0,0.1c0,0.2-0.1,0.3-0.1,0.5c0,0.1,0,0.2-0.1,0.4c0,0.1,0,0.2,0,0.2c0,0.2-0.1,0.3-0.1,0.5
	c0,0,0,0.1,0,0.1c0,0.2,0,0.3-0.1,0.5c0,0,0,0.1,0,0.1c0,0.2,0,0.4-0.1,0.5c0,0,0,0.1,0,0.1c0,0.2,0,0.4-0.1,0.6c0,0,0,0,0,0.1
	c0,0.2,0,0.4,0,0.6c0,0,0,0,0,0c0,0.2,0,0.4,0,0.6c0,0,0,0,0,0c0,1.4,0.1,2.8,0.6,4c0,0,0,0.1,0,0.1c0,0.1,0.1,0.2,0.2,0.4
	c0,0.1,0.1,0.1,0.1,0.2c0.1,0.1,0.1,0.2,0.2,0.3c0,0.1,0.1,0.1,0.1,0.2c0.1,0.1,0.1,0.2,0.2,0.3c0,0,0,0.1,0.1,0.1l0,0l0,0l0,0
	c0,0,0,0,0.1,0.1c0.1,0.1,0.2,0.3,0.4,0.4c0,0,0,0.1,0.1,0.1c0.2,0.2,0.3,0.3,0.5,0.4c1.2,0.8,2.8,1.1,4.3,1c1.9,0,3.5-0.5,3.5-0.5
	c0.1,0,0.6-0.2,1.4-0.4c3.6-1.3,13.8-5.2,24.2-13.4c3.9-3.1,7.3-6.3,10.1-9.3c1.7-1.8,3.2-3.5,4.4-5.2c0,0,0,0,0,0c0,0,0,0,0,0
	c0,0,0,0,0.1,0c0,0,0,0,0,0c0.1-0.1,0.2-0.1,0.3-0.1h0c0.2,0,0.4,0.2,0.4,0.2c4.8,8.1,11,22,11.5,39.9c-22.3,3.2-50.7,5.2-81.7,5.2
	C59,93.2,30.6,91.2,8.3,87.9z"/>
</svg>
