<?xml version="1.0" encoding="utf-8"?>
<!-- Generator: Adobe Illustrator 16.0.0, SVG Export Plug-In . SVG Version: 6.00 Build 0)  -->
<!DOCTYPE svg PUBLIC "-//W3C//DTD SVG 1.1//EN" "http://www.w3.org/Graphics/SVG/1.1/DTD/svg11.dtd">
<svg version="1.1" id="Capa_1" xmlns="http://www.w3.org/2000/svg" xmlns:xlink="http://www.w3.org/1999/xlink" x="0px" y="0px"
	 width="253.532px" height="82.724px" viewBox="0 -20.056 253.532 82.724" enable-background="new 0 -20.056 253.532 82.724"
	 xml:space="preserve">
<g>
	<g>
		<path fill="#E1781C" d="M31.847,23.168c0,5.838-4.615,10.245-10.296,10.245c-5.681,0-10.295-4.407-10.295-10.245
			c0-5.632,4.667-10.245,10.295-10.245C27.181,12.921,31.847,17.536,31.847,23.168z M29.398,23.168c0-4.327-3.232-7.951-7.846-7.951
			s-7.845,3.623-7.845,7.951c0,4.484,3.598,7.951,7.845,7.951C25.8,31.119,29.398,27.65,29.398,23.168z"/>
		<path fill="#E1781C" d="M39.507,32.991h-2.448v-17.41h-4.668V13.34h11.78v2.241h-4.665V32.991z"/>
		<path fill="#E1781C" d="M51.392,32.991h-2.449v-17.41h-4.667V13.34h11.782v2.241h-4.665L51.392,32.991L51.392,32.991z"/>
		<path fill="#E1781C" d="M58.689,28.067l-2.243,4.923h-2.634l9.384-20.486l9.384,20.486h-2.632l-2.243-4.923H58.689z
			 M63.198,17.875l-3.492,7.948h6.984L63.198,17.875z"/>
		<path fill="#E1781C" d="M77.011,28.067l-2.242,4.923h-2.633l9.384-20.486l9.384,20.486h-2.633l-2.242-4.923H77.011z
			 M81.519,17.875l-3.492,7.948h6.985L81.519,17.875z"/>
		<path fill="#C3C3C2" d="M94.993,32.991h-2.452V13.34h2.815c6.047,0,7.923,2.084,7.923,5.683c0,4.143-3.156,5.735-6.882,5.735
			h-1.405L94.993,32.991L94.993,32.991z M94.993,22.565h0.78c2.503,0,5.215-0.468,5.215-3.595c0-3.078-2.919-3.441-5.343-3.441
			h-0.651V22.565z"/>
		<path fill="#C3C3C2" d="M117.667,32.991h-2.973l-5.786-8.313h-1.019v8.313h-2.448V13.34h2.972c1.746,0,3.623,0.026,5.187,0.913
			c1.643,0.964,2.582,2.814,2.582,4.692c0,2.816-1.878,5.159-4.72,5.498L117.667,32.991z M107.892,22.646h0.782
			c2.501,0,5.214-0.472,5.214-3.598c0-3.077-2.918-3.519-5.343-3.519h-0.652L107.892,22.646L107.892,22.646z"/>
		<path fill="#C3C3C2" d="M138.804,23.168c0,5.838-4.613,10.245-10.3,10.245c-5.682,0-10.294-4.407-10.294-10.245
			c0-5.632,4.667-10.245,10.294-10.245C134.137,12.921,138.804,17.536,138.804,23.168z M136.354,23.168
			c0-4.327-3.231-7.951-7.846-7.951s-7.845,3.623-7.845,7.951c0,4.484,3.598,7.951,7.845,7.951
			C132.756,31.117,136.354,27.65,136.354,23.168z"/>
		<path fill="#C3C3C2" d="M147.194,13.34v12.484c0,3.781-0.731,7.585-5.318,7.585c-1.147,0-2.114-0.285-3.074-0.86l1.224-2.086
			c0.549,0.42,1.25,0.654,1.958,0.654c2.813,0,2.76-3.285,2.76-5.293V13.34H147.194z"/>
		<path fill="#C3C3C2" d="M150.606,13.34h10.561v2.241h-8.104v5.5h7.87v2.244h-7.87v7.426h8.104v2.24h-10.561V13.34z"/>
		<path fill="#C3C3C2" d="M178.496,17.092c-1.408-1.251-3.336-1.929-5.186-1.929c-4.405,0-7.769,3.675-7.769,8.028
			c0,4.304,3.337,7.976,7.716,7.976c1.929,0,3.778-0.73,5.238-2.033v2.893c-1.513,0.886-3.438,1.386-5.163,1.386
			c-5.604,0-10.245-4.458-10.245-10.139c0-5.814,4.668-10.351,10.454-10.351c1.722,0,3.469,0.417,4.954,1.33V17.092z"/>
		<path fill="#C3C3C2" d="M186.705,32.991h-2.449v-17.41h-4.666V13.34h11.783v2.241h-4.668V32.991L186.705,32.991z"/>
	</g>
	<path fill="none" stroke="#E1781C" stroke-width="3" stroke-miterlimit="10" d="M204.785,39.438c8.524-8.523,8.524-22.348,0-30.874
		"/>
	<path fill="none" stroke="#E1781C" stroke-width="3" stroke-miterlimit="10" d="M213.292,46.522
		c12.438-12.438,12.438-32.6,0-45.039"/>
	<path fill="none" stroke="#E1781C" stroke-width="3" stroke-miterlimit="10" d="M221.041,55.778
		c17.539-17.54,17.539-45.981-0.001-63.521"/>
	<g enable-background="new    ">
		<path fill="#E1781C" d="M241.635-7.006c0,3.2-2.512,5.711-5.781,5.711c-3.231,0-5.813-2.511-5.813-5.711
			c0-3.129,2.581-5.64,5.813-5.64C239.124-12.646,241.635-10.135,241.635-7.006z M231.488-7.006c0,2.512,1.856,4.507,4.404,4.507
			c2.475,0,4.297-1.995,4.297-4.471c0-2.511-1.822-4.542-4.335-4.542C233.344-11.512,231.488-9.48,231.488-7.006z M234.963-4.047
			h-1.31v-5.64c0.519-0.104,1.237-0.173,2.17-0.173c1.063,0,1.547,0.173,1.958,0.413c0.313,0.241,0.552,0.688,0.552,1.238
			c0,0.621-0.48,1.101-1.169,1.308v0.069c0.55,0.207,0.86,0.618,1.03,1.375c0.173,0.861,0.277,1.204,0.413,1.411H237.2
			c-0.173-0.207-0.277-0.721-0.447-1.375c-0.107-0.619-0.449-0.896-1.174-0.896h-0.616V-4.047z M234.997-7.246h0.618
			c0.725,0,1.308-0.24,1.308-0.825c0-0.517-0.378-0.86-1.204-0.86c-0.346,0-0.586,0.033-0.722,0.068V-7.246z"/>
	</g>
</g>
</svg>
