<?xml version="1.0" encoding="utf-8"?>
<!-- Generator: Adobe Illustrator 23.0.0, SVG Export Plug-In . SVG Version: 6.00 Build 0)  -->
<svg version="1.1" id="Capa_1" xmlns="http://www.w3.org/2000/svg" xmlns:xlink="http://www.w3.org/1999/xlink" x="0px" y="0px"
	 viewBox="0 0 71.5 146.8" style="enable-background:new 0 0 71.5 146.8;" xml:space="preserve">
<style type="text/css">
	.st0{fill:none;stroke:#E1781C;stroke-width:3;stroke-linecap:round;stroke-miterlimit:10;}
</style>
<g>
	<path class="st0" d="M41.7,100.9c7.1-7.3,7.1-19.1,0-26.4"/>
	<path class="st0" d="M48.8,106.9c10.4-10.6,10.4-27.8,0-38.5"/>
	<path class="st0" d="M55.2,114.8c14.6-15,14.6-39.3,0-54.3"/>
</g>
<g>
	<path class="st0" d="M41.7,101.6c7.1-7.3,7.1-19.1,0-26.4"/>
	<path class="st0" d="M48.8,107.7c10.4-10.6,10.4-27.8,0-38.5"/>
	<path class="st0" d="M55.2,115.6c14.6-15,14.6-39.3,0-54.3"/>
</g>
<path class="st0" d="M28,37.6C27,30,17,23.9,6.7,24"/>
<path class="st0" d="M22,82.5c3.3,1.3,7.6,1.6,9.7-0.7c0.8-0.9,1-1.9,1.3-3.9c1-5.6-0.7-7.9,0.8-9.5c1.8-2,5.6-0.2,6.2-1.5
	c0.5-1.1-2.1-2.7-5.8-7c-1.8-2-2.6-3.1-3.5-4.6c-2.7-4.5-2.9-9-3.1-11.1c-0.1-1.6-0.1-3.8,0.4-6.5"/>
<path class="st0" d="M6.3,122.6c1.4-5,3.3-10.1,6.5-14.2c3.1-4.1,7.6-6.1,11.9-8.7c3.7-2.2,8.4-6.2,7.2-11.1c-1.1-4.5-6-5.4-9.9-5.8
	"/>
<path class="st0" d="M20.9,42c0.9,0.8,1.2,1.8,1.4,2.2c0.5,1.5,0.2,2.8,0.1,3.3c-0.1,0.5-0.5,1.8-1.7,2.9c-0.4,0.4-1.4,1.3-3.1,1.5
	c-2.2,0.2-3.7-1.3-3.9-1.6c-1.9-1.9-1.4-4.5-1.3-5c0.1-0.6,0.4-2.5,2.1-3.7C16.5,40.2,19.3,40.5,20.9,42z"/>
</svg>
